# xmcd CD database file
#
# Track frame offsets:
#	150
#	17507
#	35610
#	53057
#
# Disc length: 960 seconds
#
# Revision: 1
# Processed by: cddbd v1.5.2PL0 Copyright (c) Steve Scherf et al.
# Submitted via: CDex 1.82
#
DISCID=2703be04
DTITLE=Morning Musume - Summer Night Town
DYEAR=1998
DGENRE=Pop
TTITLE0=Summer Night Town
TTITLE1=A MEMORY OF SUMMER '98
TTITLE2=Summer Night Town (Instrumental)
TTITLE3=Summer Night Town (First Live Version)
EXTD=YEAR: 1998
EXTT0=
EXTT1=
EXTT2=
EXTT3=
PLAYORDER=
